<?xml version="1.0" encoding="utf-8"?>
<svg xmlns="http://www.w3.org/2000/svg" xmlns:xlink="http://www.w3.org/1999/xlink" version= "1.1" width="1500px" height="1499px" viewBox="-390 -36 1500 1499">
<g id="layer1">
<g style="fill:rgb(13,125,141); fill-opacity:1.0; stroke-linejoin: miter">
<path d="M-390.001,-37.352097C-390.35934,-37.352097,-390.703,-37.209747,-390.9564,-36.956367C-391.20978,-36.702988,-391.3521,-36.359333,-391.3521,-36.001L-391.3511,1463.0C-391.3511,1463.7462,-390.7462,1464.3511,-390.0,1464.3511L1110.001,1464.352C1110.3593,1464.352,1110.7029,1464.2097,1110.9563,1463.9563C1111.2097,1463.7029,1111.352,1463.3593,1111.352,1463.001L1111.3511,-36.0C1111.3511,-36.74619,1110.7462,-37.351097,1110.0,-37.351097L-390.001,-37.352097 Z"/>
</g>
<g style="fill:rgb(0,0,0); fill-opacity:0.6431373; stroke-linejoin: miter">
<path d="M801.2159,1203.9391L797.2159,1213.2063Q766.7143,1241.7648,630.7935,1258.0038Q495.89102,1274.612,303.57416,1271.6105Q127.438545,1267.4971,16.150955,1245.6721Q-78.87398,1225.1172,-75.119446,1203.1296Q-62.220375,1170.9396,66.68726,1153.8026Q114.611244,1147.09,135.47232,1145.518Q163.70947,1142.8416,194.38736,1140.8885Q208.20078,1139.46,291.91336,1136.6571Q323.29538,1135.8218,368.94778,1135.5789Q550.096,1136.6578,672.8751,1155.6473Q701.99286,1160.1986,729.5039,1166.1724Q751.1055,1171.7833,773.5444,1180.0686Q795.90814,1188.4004,801.2159,1203.9391"/>
</g>
<g style="fill:rgb(0,0,0); fill-opacity:1.0; stroke-linejoin: miter">
<path d="M260.59967,415.41632L259.34766,409.13812Q253.61386,380.8929,254.7767,364.85693Q256.99036,342.355,262.48035,332.36948Q278.28738,296.79706,315.2865,278.18344Q331.18384,270.51926,355.04227,270.98157Q375.82544,272.0233,393.3702,280.70743Q401.98486,284.99762,408.84326,290.88693Q414.0693,295.4182,418.12238,300.74625Q430.07074,317.0819,433.3605,337.42447Q437.0934,354.49786,433.24203,383.90894Q429.7148,406.43152,418.24225,440.1238L260.59967,415.41632"/>
</g>
<g style="fill:rgb(0,0,0); fill-opacity:1.0; stroke-linejoin: miter">
<path d="M376.5688,286.0463L375.19522,292.32346Q369.3004,311.0328,352.86972,320.3242Q336.3385,329.59097,316.58395,324.42245Q297.8745,318.52774,288.58325,302.09695Q279.31647,285.56577,284.485,265.8111Q290.37967,247.10161,306.8105,237.8103Q323.34174,228.54356,343.09625,233.71213Q361.80573,239.60675,371.0969,256.03763Q374.0677,261.34384,375.61316,267.30896L376.75482,273.37466Q377.5166,279.57315,376.5688,286.0463"/>
</g>
<g style="fill:rgb(255,185,159); fill-opacity:1.0; stroke-linejoin: miter">
<path d="M497.557,762.3199L503.89575,773.60345Q548.2298,852.4048,563.28107,866.5273Q580.5416,887.44574,597.1207,879.8051Q605.17194,875.736,614.3046,863.77344Q627.6367,845.53296,640.14154,821.5141Q659.3355,787.1943,717.6026,658.1953L774.1013,642.1745L679.3958,638.3157L657.5641,687.92645L638.5449,718.29724Q623.58997,743.3507,592.5599,770.67957L548.7221,686.6776L497.557,762.3199"/>
</g>
<g style="fill:rgb(255,185,159); fill-opacity:1.0; stroke-linejoin: miter">
<path d="M74.006805,688.0897L66.673515,690.186Q23.998066,702.62415,-4.6305046,702.00305Q-34.340874,702.7635,-108.09099,688.4003L-111.656075,639.4099Q-112.12477,564.21375,-111.757,534.8953Q-110.628845,447.06747,-105.97749,418.8606Q-100.751595,383.19266,-91.49558,368.13928Q-88.47659,362.78217,-85.20882,358.6975L-66.93655,338.67578Q-61.76249,333.53873,-55.781902,332.23135Q-35.365044,327.67783,-2.1620893,338.52277Q9.541654,342.84177,16.10758,349.61157L18.72275,353.15094Q20.79971,356.86475,20.953472,361.07108Q21.469076,377.36755,-0.6519936,398.72446Q-18.094091,415.1891,-42.95685,416.5091Q-51.224285,431.9366,-54.176746,445.4343Q-59.140476,470.7835,-57.239197,498.85785Q-56.5468,527.77466,-44.70441,625.9598L55.32969,595.4458L74.006805,688.0897"/>
</g>
<g style="fill:rgb(255,255,255); fill-opacity:1.0; stroke-linejoin: miter">
<path d="M190.7272,1022.4845L194.32718,1013.21655Q227.84541,929.2662,227.3636,891.77124Q228.52995,864.8048,222.80002,826.0492Q210.30185,803.86115,207.62384,787.6354Q205.85855,774.36255,208.87033,755.22955L154.3829,679.3267L44.967728,711.9199L29.093962,600.4986Q115.440765,579.03516,151.92758,571.85297L171.52338,568.61163Q208.8712,566.28534,210.68901,564.30444Q229.76315,559.42053,272.27322,543.7434L403.43613,543.0774Q468.95627,554.9965,497.9737,567.0242Q521.7993,574.52936,534.5375,598.6042Q541.0476,609.0069,538.99615,647.7778Q557.3681,700.9944,567.4485,714.9884L498.9084,770.1086L476.42288,716.7831Q482.93198,751.49664,480.03525,770.5634Q478.23618,789.3251,462.33505,830.26825Q468.96414,919.70526,477.20187,952.9848Q484.56116,988.30554,509.1261,1036.0688L190.7272,1022.4845"/>
</g>
<g style="fill:rgb(255,255,255); fill-opacity:1.0; stroke-linejoin: miter">
<path d="M258.80435,1185.2303L250.07404,1221.7072Q189.51933,1240.5737,165.06187,1246.0447Q141.39716,1250.9147,131.95247,1247.3198Q122.95982,1243.7874,121.24411,1240.8846Q115.22348,1234.1354,112.891846,1222.5944Q108.551926,1198.1105,115.08772,1171.2874Q120.552,1145.648,145.83511,1109.7456L258.80435,1185.2303"/>
</g>
<g style="fill:rgb(255,255,255); fill-opacity:1.0; stroke-linejoin: miter">
<path d="M602.491,1119.8458L606.3898,1130.7335Q629.1005,1195.3109,629.4033,1208.8527Q631.1786,1227.3142,629.7894,1229.0906Q627.61676,1239.9126,619.9934,1244.7468L616.01154,1246.9769Q611.75696,1248.9076,606.6849,1249.9401Q599.3493,1251.7883,578.59906,1252.1083L441.2433,1239.605L438.04205,1161.1547L602.491,1119.8458"/>
</g>
<g style="fill:rgb(0,0,0); fill-opacity:1.0; stroke-linejoin: miter">
<path d="M198.76933,1173.1222L134.02414,1132.54L119.54802,1161.0747Q40.415806,1110.2559,30.531193,1080.5367Q20.133339,1050.2776,30.966434,1024.9198Q41.726574,994.0735,65.57985,985.20654Q81.72166,980.944,101.560394,985.60815L121.39911,990.2721L202.90561,1014.27893Q210.0731,1011.0543,244.89975,1013.10266L487.39398,1027.9388L518.8342,1009.338Q545.3514,1000.1859,570.4625,994.7908Q587.1165,991.426,602.104,992.5137Q619.1076,994.00867,631.8881,1002.64844Q668.836,1033.2471,660.5385,1066.6741Q659.6002,1076.8903,643.87195,1099.8508Q628.6778,1119.4204,609.2656,1138.7164Q598.9232,1129.2211,587.2301,1132.2131Q576.2966,1133.7112,539.72797,1151.724L469.00342,1169.1858L198.76933,1173.1222"/>
</g>
<g style="fill:rgb(255,189,150); fill-opacity:1.0; stroke-linejoin: miter">
<path d="M451.1006,1233.5402L308.2332,1197.6985L249.11053,1209.8209L256.91766,1188.5558L201.20052,1172.0703Q212.59822,1138.3684,225.84741,1121.6263Q234.94406,1110.7896,247.38095,1104.061Q257.54895,1098.2125,278.14594,1090.5073L320.4435,1114.5653L418.5936,1070.3562Q444.88272,1105.9845,453.1305,1121.8636Q462.25208,1138.0881,470.70123,1166.6666L446.04492,1174.8241L451.1006,1233.5402"/>
</g>
<g style="fill:rgb(0,150,136); fill-opacity:1.0; stroke-linejoin: miter">
<path d="M179.34555,1297.0566L179.34549,1297.0569L179.3454,1297.057L179.34555,1297.0566"/>
</g>
<g style="fill:rgb(255,185,159); fill-opacity:1.0; stroke-linejoin: miter">
<path d="M267.32837,571.4178L267.32837,571.4179L267.3284,571.41797L267.32837,571.4178"/>
</g>
<g style="fill:rgb(255,185,159); fill-opacity:1.0; stroke-linejoin: miter">
<path d="M275.3065,556.4281L276.608,553.7905Q285.6915,535.31305,286.65073,526.6786Q288.60745,516.80945,285.6735,499.83386Q284.57013,493.65195,283.2506,487.41733L272.58368,446.8975Q259.60416,450.2868,254.15009,430.85513Q247.14543,409.07922,249.42363,394.8709Q252.8078,385.39874,272.14496,399.42407Q282.49512,364.3527,308.00055,340.81503Q330.11453,320.78345,355.86252,321.52487Q388.3503,323.26703,405.7105,336.5421Q413.0927,341.97067,417.43063,349.13422Q421.33652,353.8866,424.56146,370.43176Q428.85605,401.25952,418.76135,448.87787Q411.1445,478.03427,395.9535,494.31937Q389.5852,511.65454,387.85327,521.5538Q383.80316,535.1709,395.68652,556.5356L338.16684,611.4191L275.3065,556.4281"/>
</g>
<g style="fill:rgb(255,185,159); fill-opacity:1.0; stroke-linejoin: miter">
<path d="M419.69595,402.2859L396.01144,441.738Q401.7511,461.22662,405.95908,462.9229Q408.54837,464.18768,410.5785,462.69336Q412.0222,461.66443,412.34436,461.25745L414.3652,458.89252L416.4887,455.76477Q418.6638,452.25568,420.86197,447.73737L423.0205,443.0959Q425.16217,438.26663,427.05383,433.20267Q433.0934,416.8017,433.60342,408.2874Q433.8171,406.25635,433.06888,403.5747Q432.36484,401.56006,430.45627,400.811Q427.0962,399.69522,419.69595,402.2859"/>
</g>
<g style="fill:rgb(0,0,0); fill-opacity:1.0; stroke-linejoin: miter">
<path d="M425.53555,394.1206L424.14066,407.8214L422.74576,421.52216Q426.67612,407.7528,430.60654,393.98346Q428.07104,394.05203,425.53555,394.1206"/>
</g>
<g style="fill:rgb(0,0,0); fill-opacity:1.0; stroke-linejoin: miter">
<path d="M267.00558,392.83655L275.93842,438.64413Q274.3841,428.9446,273.9102,422.717Q273.71152,420.2456,273.60394,417.578L273.5248,414.84912Q273.4713,412.06512,273.54303,409.01135Q273.61853,405.94946,273.81927,402.61792Q273.8584,401.0839,274.6463,392.139Q275.48825,383.07758,277.70502,365.25684L267.00558,392.83655"/>
</g>
<g style="fill:rgb(255,0,0); fill-opacity:0.13725491; stroke-linejoin: miter">
<path d="M285.7112,494.54337L290.73425,500.01605Q308.0957,519.3727,322.53494,530.44366Q328.7156,535.0495,335.48044,537.83344Q339.305,539.3725,344.5829,539.74445Q348.22348,539.9651,353.3266,538.3462Q359.5406,536.07135,365.38367,531.46063Q376.16513,522.6813,391.68964,502.18866L335.39255,589.6086L285.7112,494.54337"/>
</g>
<g style="fill:rgb(0,0,0); fill-opacity:1.0; stroke-linejoin: miter">
<path d="M12.537082,240.76585L12.537112,240.76662L12.537143,240.76735L12.537082,240.76585"/>
</g>
<g style="fill:rgb(0,0,0); fill-opacity:1.0; stroke-linejoin: miter">
<path d="M-116.991394,339.6064L-33.916332,343.43066L49.15874,347.25482Q48.338642,365.0734,47.518524,382.89188Q-35.556602,379.06888,-118.631714,375.24588Q-117.811554,357.42612,-116.991394,339.6064"/>
</g>
<g style="fill:rgb(0,0,0); fill-opacity:1.0; stroke-linejoin: miter">
<path d="M29.595535,321.26346L55.889004,321.26364L82.182465,321.2638Q82.18245,360.86377,82.18244,400.46368Q55.88898,400.46384,29.595509,400.46396Q29.595528,360.86374,29.595535,321.26346"/>
</g>
<g style="fill:rgb(0,0,0); fill-opacity:1.0; stroke-linejoin: miter">
<path d="M-163.21277,317.53287L-110.62583,317.53317L-110.62585,396.7331L-163.2128,396.7334L-163.21277,317.53287"/>
</g>
<g style="fill:rgb(217,226,231); fill-opacity:1.0; stroke-linejoin: miter">
<path d="M892.9462,609.2397L891.7198,615.231Q883.0,633.33704,840.69257,644.19257Q798.0924,655.03937,740.3633,652.98926Q685.26825,650.1236,652.2359,636.22Q641.652,631.7257,634.80005,626.4258L629.0412,620.97705Q624.2954,615.3534,624.242,609.23956Q625.6828,590.4775,663.59283,578.0189Q701.503,565.56036,758.5942,565.087Q815.6854,565.5604,853.59546,578.01904Q891.5056,590.4776,892.9462,609.2397"/>
</g>
<g>
<g style="fill:rgb(89,157,116); fill-opacity:1.0; stroke-linejoin: miter">
<path d="M765.65015,582.30396L765.47864,584.85364Q764.25916,592.55896,758.3422,597.1788Q752.38434,601.7948,744.31055,600.92236Q736.6052,599.7029,731.9854,593.7859Q730.5052,591.8733,729.54694,589.61786L728.7415,587.2991Q728.07776,584.90576,728.0703,582.30396Q728.2718,574.31946,733.5737,569.01746Q738.87573,563.7155,746.8602,563.51404Q754.8448,563.7155,760.1467,569.01746Q765.44867,574.31946,765.65015,582.30396"/>
</g>
<g style="fill:rgb(89,157,116); fill-opacity:1.0; stroke-linejoin: miter">
<path d="M750.1246,579.3937L749.96643,581.6083Q748.8419,588.30084,743.38605,592.31335Q737.89246,596.3227,730.4479,595.5649Q723.3429,594.5057,719.08307,589.3665Q717.7182,587.70526,716.8346,585.7463L716.0919,583.73224Q715.4799,581.6535,715.473,579.3937Q715.6588,572.4587,720.5476,567.85364Q725.43646,563.2486,732.7989,563.0736Q740.1612,563.2486,745.05,567.85364Q749.9388,572.4587,750.1246,579.3937"/>
</g>
<g style="fill:rgb(89,157,116); fill-opacity:1.0; stroke-linejoin: miter">
<path d="M753.2726,564.0127L753.13745,566.0213Q752.17676,572.09143,747.51556,575.7308Q742.8221,579.3672,736.4618,578.6799Q730.39166,577.7192,726.75226,573.058Q725.5862,571.5513,724.83124,569.7745L724.1968,567.94775Q723.6739,566.0624,723.668,564.0127Q723.8268,557.7227,728.00354,553.54596Q732.1803,549.3692,738.47034,549.21045Q744.7604,549.3692,748.9371,553.54596Q753.11383,557.7227,753.2726,564.0127"/>
</g>
<g style="fill:rgb(89,157,116); fill-opacity:1.0; stroke-linejoin: miter">
<path d="M764.8862,569.5487L764.7987,570.9896Q764.1763,575.3443,761.1563,577.95514Q758.1155,580.5639,753.99475,580.07086Q750.062,579.38165,747.7041,576.0377Q746.9486,574.9568,746.45953,573.6821L746.04846,572.3717Q745.70966,571.0191,745.7059,569.5487Q745.8087,565.03625,748.5148,562.03986Q751.2208,559.0435,755.296,558.9296Q759.3713,559.0435,762.07733,562.03986Q764.7834,565.03625,764.8862,569.5487"/>
</g>
<g style="fill:rgb(89,157,116); fill-opacity:1.0; stroke-linejoin: miter">
<path d="M742.6156,568.81165L742.451,570.24603Q741.2807,574.5808,735.60236,577.1798Q729.8847,579.7767,722.13654,579.2858Q714.7419,578.5998,710.3084,575.27106Q708.8879,574.19507,707.9682,572.9262L707.19525,571.62177Q706.5583,570.2753,706.55115,568.81165Q706.7445,564.31976,711.83264,561.33704Q716.92084,558.3543,724.5834,558.24097Q732.2459,558.3543,737.3341,561.33704Q742.42224,564.31976,742.6156,568.81165"/>
</g>
</g>
<g style="fill:rgb(89,157,116); fill-opacity:1.0; stroke-linejoin: miter">
<path d="M664.4477,617.9757L664.4477,617.97577L564.4879,616.1272Q569.70264,605.29144,574.91736,594.4556L664.4477,617.9757"/>
</g>
<g style="fill:rgb(89,157,116); fill-opacity:1.0; stroke-linejoin: miter">
<path d="M656.334,609.4469L656.33405,609.44696L576.0919,585.81384Q582.0346,579.03436,587.97736,572.255L656.334,609.4469"/>
</g>
<g style="fill:rgb(89,157,116); fill-opacity:1.0; stroke-linejoin: miter">
<path d="M662.3752,602.88165L662.3752,602.8817L589.02295,569.06085Q593.2347,565.5906,597.4463,562.1205L662.3752,602.88165"/>
</g>
<g style="fill:rgb(89,157,116); fill-opacity:1.0; stroke-linejoin: miter">
<path d="M678.942,599.5672L678.942,599.56726L578.98224,597.71875Q584.1969,586.88306,589.4115,576.0471L678.942,599.5672"/>
</g>
<g style="fill:rgb(89,157,116); fill-opacity:1.0; stroke-linejoin: miter">
<path d="M670.82837,591.03845L670.8284,591.0385L590.5862,567.40533Q596.5288,560.62604,602.47156,553.8466L670.82837,591.03845"/>
</g>
<g style="fill:rgb(89,157,116); fill-opacity:1.0; stroke-linejoin: miter">
<path d="M676.86957,584.4732L676.86957,584.47327L603.5172,550.65247Q607.72894,547.18225,611.9406,543.712L676.86957,584.4732"/>
</g>
<g>
<g style="fill:rgb(89,157,116); fill-opacity:1.0; stroke-linejoin: miter">
<path d="M787.1145,564.415L786.943,566.96466Q785.7235,574.67,779.8066,579.2898Q773.8487,583.9058,765.7749,583.0334Q758.0696,581.8139,753.44977,575.8969Q751.96954,573.9843,751.0113,571.7289L750.2059,569.4101Q749.5421,567.0168,749.53467,564.415Q749.73615,556.4305,755.0381,551.1285Q760.3401,545.82654,768.3246,545.62506Q776.30914,545.82654,781.6111,551.1285Q786.913,556.4305,787.1145,564.415"/>
</g>
<g style="fill:rgb(89,157,116); fill-opacity:1.0; stroke-linejoin: miter">
<path d="M771.5889,561.5047L771.4308,563.7193Q770.3063,570.41187,764.8504,574.4244Q759.3568,578.4337,751.91223,577.6759Q744.80725,576.6167,740.5474,571.47754Q739.18256,569.8163,738.29895,567.8573L737.5563,565.84326Q736.9443,563.7645,736.9374,561.5047Q737.12317,554.5697,742.01196,549.96466Q746.9008,545.3596,754.26324,545.18463Q761.62555,545.3596,766.51434,549.96466Q771.40314,554.5697,771.5889,561.5047"/>
</g>
<g style="fill:rgb(89,157,116); fill-opacity:1.0; stroke-linejoin: miter">
<path d="M774.73694,546.1237L774.6018,548.1323Q773.6411,554.20245,768.9799,557.8418Q764.28644,561.4782,757.92615,560.7909Q751.856,559.8302,748.2166,555.169Q747.05054,553.6623,746.2956,551.8855L745.66113,550.0588Q745.13824,548.1734,745.1324,546.1237Q745.29114,539.83374,749.4679,535.657Q753.64465,531.4802,759.9347,531.3215Q766.22473,531.4802,770.4014,535.657Q774.5782,539.83374,774.73694,546.1237"/>
</g>
<g style="fill:rgb(89,157,116); fill-opacity:1.0; stroke-linejoin: miter">
<path d="M786.3506,551.6597L786.26306,553.10065Q785.6406,557.4553,782.62067,560.06616Q779.57983,562.6749,775.4591,562.1819Q771.52637,561.4927,769.16846,558.14874Q768.41296,557.0678,767.9239,555.79315L767.5128,554.4827Q767.174,553.1301,767.1702,551.6597Q767.2731,547.1473,769.9791,544.1509Q772.6852,541.15454,776.7604,541.04065Q780.83563,541.15454,783.5417,544.1509Q786.24774,547.1473,786.3506,551.6597"/>
</g>
<g style="fill:rgb(89,157,116); fill-opacity:1.0; stroke-linejoin: miter">
<path d="M764.07996,550.92267L763.91534,552.35706Q762.74506,556.69183,757.0667,559.29083Q751.34906,561.8877,743.6009,561.39685Q736.20624,560.7108,731.77277,557.3821Q730.35223,556.3061,729.43256,555.03723L728.6596,553.7328Q728.02264,552.38635,728.0155,550.92267Q728.20886,546.4308,733.297,543.44806Q738.3852,540.46533,746.0477,540.352Q753.71027,540.46533,758.79846,543.44806Q763.8866,546.4308,764.07996,550.92267"/>
</g>
</g>
<g>
<g style="fill:rgb(89,157,116); fill-opacity:1.0; stroke-linejoin: miter">
<path d="M744.967,573.74L744.7955,576.2897Q743.576,583.995,737.65906,588.6148Q731.7012,593.23083,723.6274,592.3584Q715.92206,591.1389,711.30225,585.2219Q709.822,583.3093,708.8638,581.0539L708.05835,578.7351Q707.3946,576.3418,707.38715,573.74Q707.5886,565.7555,712.89056,560.4535Q718.19257,555.15155,726.17706,554.9501Q734.1616,555.15155,739.46356,560.4535Q744.7655,565.7555,744.967,573.74"/>
</g>
<g style="fill:rgb(89,157,116); fill-opacity:1.0; stroke-linejoin: miter">
<path d="M729.4414,570.8297L729.28326,573.0443Q728.15875,579.7369,722.7029,583.7494Q717.2093,587.7587,709.7647,587.0009Q702.6597,585.9417,698.3999,580.80255Q697.03503,579.1413,696.1514,577.1823L695.40875,575.1683Q694.79675,573.08954,694.78986,570.8297Q694.97565,563.8947,699.86444,559.2897Q704.7533,554.68463,712.1157,554.50964Q719.478,554.68463,724.3668,559.2897Q729.2556,563.8947,729.4414,570.8297"/>
</g>
<g style="fill:rgb(89,157,116); fill-opacity:1.0; stroke-linejoin: miter">
<path d="M732.5894,555.4487L732.4543,557.45734Q731.4936,563.52747,726.8324,567.1668Q722.1389,570.8032,715.7786,570.1159Q709.7085,569.1552,706.0691,564.494Q704.903,562.9873,704.1481,561.2105L703.5136,559.3838Q702.9907,557.4984,702.98486,555.4487Q703.1436,549.15875,707.3204,544.982Q711.49713,540.80524,717.7872,540.6465Q724.0772,540.80524,728.2539,544.982Q732.43066,549.15875,732.5894,555.4487"/>
</g>
<g style="fill:rgb(89,157,116); fill-opacity:1.0; stroke-linejoin: miter">
<path d="M744.20306,560.98474L744.11554,562.42566Q743.4931,566.78033,740.47314,569.3912Q737.4323,571.99994,733.3116,571.5069Q729.37885,570.8177,727.02094,567.47375Q726.26544,566.3928,725.77637,565.11816L725.3653,563.80774Q725.0265,562.45514,725.0227,560.98474Q725.12555,556.4723,727.8316,553.4759Q730.53766,550.47955,734.61285,550.36566Q738.6881,550.47955,741.39417,553.4759Q744.1002,556.4723,744.20306,560.98474"/>
</g>
<g style="fill:rgb(89,157,116); fill-opacity:1.0; stroke-linejoin: miter">
<path d="M721.93243,560.2477L721.7678,561.68207Q720.59753,566.01685,714.9192,568.61584Q709.20154,571.2127,701.45337,570.72186Q694.0587,570.0358,689.62524,566.7071Q688.2047,565.6311,687.28503,564.36224L686.5121,563.0578Q685.8751,561.71136,685.868,560.2477Q686.06134,555.7558,691.1495,552.7731Q696.2377,549.79034,703.9002,549.677Q711.56274,549.79034,716.65094,552.7731Q721.7391,555.7558,721.93243,560.2477"/>
</g>
</g>
<g style="fill:rgb(255,193,7); fill-opacity:1.0; stroke-linejoin: miter">
<path d="M787.33746,615.15375L780.6116,616.92834Q736.43726,628.9612,710.8254,631.8472Q705.1591,632.4608,699.816,632.7205Q696.9865,633.0234,684.3664,632.8644Q671.8858,632.55255,651.2299,630.0095Q642.4998,613.8025,645.9597,607.0007Q649.082,599.0767,667.80005,588.5022L720.9068,606.0651L787.33746,615.15375"/>
</g>
<g style="fill:rgb(255,193,7); fill-opacity:1.0; stroke-linejoin: miter">
<path d="M801.8319,596.7453L795.1059,598.5199Q750.9315,610.5528,725.3196,613.43884Q719.6534,614.0525,714.3102,614.3122Q711.4807,614.61505,698.86066,614.45605Q686.3801,614.1442,665.72424,611.60114Q656.9941,595.394,660.4539,588.5922Q663.57635,580.66833,682.29425,570.0937L735.4011,587.6568L801.8319,596.7453"/>
</g>
<g style="fill:rgb(244,67,54); fill-opacity:1.0; stroke-linejoin: miter">
<path d="M846.29803,586.1994L847.1572,591.7091Q848.2614,608.6967,837.88464,621.37177Q827.41907,634.0588,809.8139,636.0786Q792.82635,637.18286,780.1511,626.80615Q776.0818,623.4456,772.9589,619.10486L770.13104,614.5557Q767.56885,609.77997,766.30365,604.2452Q762.89844,587.1521,771.6384,573.3201Q780.37836,559.4881,797.2779,555.22504Q814.371,551.81976,828.203,560.55975Q842.035,569.29987,846.29803,586.1994"/>
</g>
<g style="fill:rgb(255,255,255); fill-opacity:0.627451; stroke-linejoin: miter">
<path d="M810.0676,586.4019L810.1705,587.0607Q810.2291,587.9634,810.0166,588.7643Q809.91034,589.16473,809.7363,589.53973Q809.69165,589.74316,809.0617,590.6074Q808.32965,591.395,808.1326,591.4769Q807.79126,591.7196,807.40784,591.89923Q806.6409,592.25854,805.7054,592.3659Q804.8026,592.4246,804.0017,592.2121Q803.60126,592.10583,803.22626,591.9318Q802.31104,591.43744,802.15857,591.2572Q800.62646,589.9011,800.4303,588.1102Q800.32104,587.22107,800.49866,586.409Q800.58746,586.003,800.748,585.6162Q800.78644,585.40607,801.385,584.5085Q802.4102,583.15137,804.20636,582.69836Q805.11475,582.5174,805.94604,582.6233Q806.3617,582.6762,806.7581,582.8009Q807.7323,583.1753,807.904,583.33624Q808.6391,583.80066,809.14813,584.4578Q809.3107,584.59204,809.78455,585.552Q809.95435,585.9529,810.0676,586.4019"/>
</g>
</g>
</svg>