<svg version="1.2" baseProfile="tiny-ps" xmlns="http://www.w3.org/2000/svg" viewBox="0 0 3250 2500" width="3250" height="2500">
	<title>yoga-ai</title>
	<style>
		tspan { white-space:pre }
		.shp0 { fill: #cce5f6 } 
		.shp1 { fill: #3498db } 
		.shp2 { fill: #facd9b } 
		.shp3 { fill: #db3498 } 
		.shp4 { fill: #fccb98 } 
		.shp5 { fill: #f9c690 } 
		.shp6 { fill: #5e3603 } 
		.shp7 { fill: #7734db } 
		.shp8 { fill: #f4b875 } 
		.shp9 { fill: #58b3ac } 
		.shp10 { fill: #e5e0f0 } 
	</style>
	<g id="Слой 1">
		<path id="&lt;Path&gt;" class="shp0" d="M504.83 2017.46C484.76 1974.17 324.15 1615.59 427.51 1246.39C511.54 946.21 716.53 830.22 798.66 783.74C1088.04 620 1189.11 833.43 1556.43 761.71C1563.44 760.34 1573.62 758.36 1586.58 755.49C1625.53 746.69 1663.75 735.06 1701.25 720.6C1791.25 685.91 2124.57 403.78 2345.13 255.01C2560.06 110.04 2635.95 113.04 2677.09 121.49C2806.91 148.14 2882.32 280.82 2917.09 343.96C3198.42 854.86 2857.28 1575.86 2824.53 1642.94C2758.45 1778.31 2637.95 1984.85 2422.45 2193.7L504.83 2017.46Z" />
		<path id="&lt;Path&gt;" class="shp1" d="M224.49 2300.91L426.68 1973.08L2850.65 1973.08L3008.49 2300.91L224.49 2300.91Z" />
		<path id="&lt;Path&gt;" class="shp2" d="M908.69 1922.64C895.36 1925.5 895.36 1927.71 832.3 1963.36C801.41 1980.81 771.24 1997.34 744.28 2028.14C736.11 2037.47 726.76 2049.8 727.67 2065.15C728.56 2080.1 738.74 2090.62 740.96 2092.91C750.48 2102.76 759.18 2103.13 770.85 2107.72C781.08 2111.74 795.52 2125.26 823.99 2152.14C854.46 2180.9 854.64 2183.34 863.85 2187.31C866.87 2188.61 891.6 2198.77 918.65 2187.31C928.76 2183.02 940.7 2177.96 941.9 2168.8C943.59 2155.83 922.12 2147.17 890.42 2118.83C864.17 2095.35 841.56 2075.14 843.92 2055.9C845.79 2040.64 862.39 2033.97 893.74 2017.03C952.2 1985.46 1002.27 1958.42 1000.02 1941.15C997.94 1925.13 950.38 1913.69 908.69 1922.64Z" />
		<path id="&lt;Path&gt;" class="shp2" d="M2066.16 1941.15C2059.03 1995.46 2079.31 2005.69 2076.12 2070.7C2074.65 2100.7 2069.39 2117.72 2079.44 2128.08C2088.65 2137.56 2102.4 2132.92 2125.94 2129.93C2139.03 2128.27 2165.11 2129.44 2217.28 2131.78C2279.83 2134.59 2306.83 2141.96 2310.27 2131.78C2312.93 2123.95 2299.61 2111.67 2295.33 2107.72C2274.16 2088.21 2257.37 2094.22 2222.26 2081.81C2205.58 2075.91 2181.72 2067.16 2162.48 2044.79C2151.81 2032.39 2146.54 2020.43 2137.57 1996.67C2105.75 1912.44 2101.64 1876.53 2091.07 1876.37C2080.25 1876.21 2069.78 1913.59 2066.16 1941.15Z" />
		<path id="&lt;Path&gt;" class="shp3" d="M1619.44 1390.61C1598.58 1402.4 1596.76 1412.42 1562.98 1435.03C1532.81 1455.22 1524.83 1453.53 1504.86 1466.49C1468 1490.41 1462.33 1517.46 1425.15 1570.13C1421.55 1575.23 1390.12 1619.31 1345.44 1660.82C1304.8 1698.57 1269.35 1719.21 1204.28 1757.07C1174.66 1774.3 1155.09 1785.6 1126.23 1797.78C1091.57 1812.42 1083.06 1811.65 1046.52 1827.4C1037.06 1831.48 1031.67 1834.1 968.47 1868.12C910.97 1899.07 882.22 1914.87 882.12 1931.04C882.09 1934.83 886.53 1942.87 895.4 1958.81C909.17 1983.53 916.06 1995.9 921.97 1999.52C939.9 2010.52 964.22 1990.36 993.38 1973.61C996.12 1972.04 1031.74 1959.61 1102.98 1934.75C1257.43 1880.85 1244.89 1891.45 1295.62 1869.97C1379.44 1834.47 1421.34 1816.72 1466.67 1777.43C1508.01 1741.57 1532.47 1706.55 1586.23 1692.29C1600.15 1688.6 1608.45 1688.3 1660.96 1688.59C1820.18 1689.44 1805.73 1692.46 1833.67 1690.44C1921.24 1684.12 1964.46 1661.63 1981.71 1687.43C1989.89 1699.66 1983.65 1709.92 1986.45 1744.11C1989.56 1782.14 1999.6 1797.78 2016.34 1845.91C2050.59 1944.37 2049.09 1995.37 2072.8 1999.52C2075.14 1999.93 2089.32 1996 2117.64 1988.42C2125.57 1986.3 2129.55 1985.23 2130.16 1984.83C2150.08 1971.95 2132.09 1906.84 2115.98 1807.04C2108.45 1760.37 2108.25 1750.27 2094.39 1662.68C2080.97 1577.85 2077.33 1563.4 2064.5 1549.78C2053.67 1538.27 2035.9 1526.95 1938.29 1527.57C1824.96 1528.28 1808.35 1543.8 1783.85 1523.87C1738.83 1487.22 1767.54 1412.51 1720.74 1383.2C1689.44 1363.6 1644.09 1376.68 1619.44 1390.61Z" />
		<path id="&lt;Path&gt;" class="shp4" d="M1584.27 1192.09C1579.94 1201.69 1583.52 1223.18 1590.69 1266.16C1597.75 1308.55 1600.62 1305.95 1601.18 1322.98C1602.81 1372.39 1578.15 1388.96 1591.21 1413.67C1595.54 1421.86 1608 1429.72 1632.73 1445.13C1650.54 1456.23 1666.95 1466.35 1690.85 1476.59C1727.15 1492.15 1745.3 1499.92 1757.28 1493.25C1757.63 1493.05 1758.04 1492.82 1758.49 1492.5C1781.36 1476.51 1783.5 1417.47 1783.85 1406.26C1786.54 1319.17 1797.95 1314.39 1792.65 1242.49C1790.57 1214.21 1789.4 1199.88 1783.11 1190.52C1745.7 1134.76 1605.65 1144.71 1584.27 1192.09Z" />
		<path id="&lt;Path&gt;" class="shp5" d="M1455.04 741.82C1449.74 745.11 1440.09 737.53 1383.63 673.34C1296.73 574.55 1308.58 579.98 1285.65 560.44C1254.83 534.17 1235.33 525.99 1229.19 499.36C1223.89 476.39 1230.11 446.46 1245.8 438.29C1255.88 433.03 1270.41 436.49 1307.24 467.9C1351.64 505.76 1405.33 551.56 1438.43 641.88C1451.27 676.89 1466.83 734.5 1455.04 741.82Z" />
		<path id="&lt;Path&gt;" class="shp6" d="M1460.68 656.68C1480.34 640.55 1505.34 640.99 1555.34 641.88C1583.74 642.38 1603.23 642.73 1628.41 651.13C1642.24 655.75 1703.95 676.35 1706.46 712.21C1707.16 722.17 1703.28 733.25 1674.91 764.03C1641.68 800.07 1614.53 820.11 1596.86 834.36C1518.51 897.56 1522.11 931.37 1470.65 947.26C1458.52 951.01 1427.11 960.17 1395.92 943.56C1375.48 932.67 1344.11 904.84 1349.42 873.23C1352.63 854.12 1368.94 835.41 1385.95 834.36C1409.08 832.94 1422.53 864.85 1430.79 860.27C1441.18 854.52 1416.93 805.74 1424.15 743.67C1426.39 724.38 1431.47 680.67 1460.68 656.68Z" />
		<path id="&lt;Path&gt;" class="shp5" d="M1567.96 912.1C1583.8 928.17 1615.06 925.9 1677.57 921.35C1689.46 920.48 1703.1 918.92 1709.12 908.39C1716.77 895.01 1704.45 880.49 1712.44 860.27C1718.35 845.32 1728.09 845.65 1729.05 834.36C1730.18 820.98 1716.82 816.54 1709.12 797.35C1700.49 775.84 1710.41 764.31 1705.8 747.37C1697.8 718.01 1652.64 696.23 1621.11 704.8C1557.83 722 1524.65 868.14 1567.96 912.1Z" />
		<path id="&lt;Path&gt;" class="shp5" d="M1654.32 873.23C1664.71 878.36 1637.31 920.23 1654.32 965.77C1662.17 986.79 1674.8 999.61 1692.51 1017.59C1708.98 1034.31 1739.43 1060.19 1765.58 1082.37C1775.73 1090.98 1783.58 1097.55 1782.19 1102.73C1780.8 1107.91 1768.33 1108.2 1743.99 1106.43C1697.37 1103.04 1674.05 1101.35 1661.24 1094.4C1625.95 1075.25 1615.8 1034.92 1609.48 1010.19C1605.47 994.49 1592.59 944.11 1620.17 901.76C1630.46 885.97 1647.35 869.79 1654.32 873.23Z" />
		<path id="&lt;Path&gt;" class="shp7" d="M1551.36 1052.76C1538.58 1066.72 1556.68 1088.95 1567.96 1145.3C1580.28 1206.77 1575.56 1263.65 1590.69 1266.16C1593.08 1266.55 1593.73 1265.22 1602.78 1264.41C1611.8 1263.6 1617.78 1264.94 1626.32 1264.89C1632.55 1264.85 1640.52 1264.98 1651 1265.6C1679.86 1267.31 1702.83 1271.23 1724.07 1274.86C1781.53 1284.66 1791.4 1293.05 1800.45 1284.11C1809.57 1275.11 1805.53 1260.73 1800.45 1193.42C1798.63 1169.18 1797.9 1154.51 1797.55 1145.26C1797.37 1140.4 1797.37 1137.22 1797.08 1133.2C1796.89 1130.7 1796.8 1129.42 1796.57 1128.01C1795.88 1123.78 1794.68 1120.7 1793.05 1116.48C1792.65 1115.45 1791.71 1113.08 1790.32 1110.1C1790.22 1109.89 1788.81 1106.9 1787.79 1105.08C1787.79 1105.08 1785.13 1100.35 1779.91 1095.87C1753.34 1073.06 1740.05 1061.65 1612.69 1051.44C1572.69 1045.51 1559.36 1044.02 1551.36 1052.76Z" />
		<path id="&lt;Path&gt;" class="shp8" d="M1560.85 1107.64C1551.07 1099.09 1546.6 1089.47 1543.74 1082.95C1524.44 1038.91 1516.1 994.15 1515.65 991.68C1504.9 932.3 1500.09 872.64 1498.85 851.86C1498.79 850.93 1498.06 838.67 1496.18 822.45C1494.51 808.15 1493.18 801.31 1492.44 797.77C1490.37 787.9 1487.94 779.83 1486.02 774.13C1483.04 765.09 1479.36 755.58 1474.8 745.77C1457.9 709.43 1435.3 682.64 1416.01 664.09C1399.72 647.7 1382.45 614.35 1333.81 558.59C1333.81 558.59 1327.06 549.75 1279.01 472.53C1263.17 447.07 1254.04 431.87 1259.08 422.56C1264.99 411.65 1287.22 414.52 1306.41 417C1324.8 419.38 1333.99 420.57 1341.29 428.11C1354.51 441.79 1347.16 459.6 1356.23 483.63C1362.48 500.19 1371.28 505.79 1396.09 528.05C1396.09 528.05 1439.41 566.93 1488.25 622.44C1508.43 645.38 1517.87 657.39 1525.62 669.64C1545.47 701.01 1551.41 724.82 1564.25 768.32C1586.87 844.95 1598.17 883.26 1617.78 927.83C1636.69 970.8 1646.25 992.22 1655.15 1005.56C1674.13 1034.01 1690.72 1047.98 1690.02 1072.19C1689.95 1074.74 1688.94 1096 1672.59 1111.06C1655.64 1126.66 1633.17 1125.48 1613.22 1124.44C1599.29 1123.72 1577.97 1122.61 1560.85 1107.64Z" />
		<path id="&lt;Path&gt;" class="shp9" d="" />
		<path id="&lt;Path&gt;" class="shp4" d="" />
		<path id="&lt;Path&gt;" class="shp8" d="" />
		<path id="&lt;Path&gt;" class="shp5" d="" />
		<path id="&lt;Path&gt;" class="shp10" d="" />
	</g>
</svg>